<svg width="2022" height="1082" viewBox="0 0 2022 1082" fill="none" xmlns="http://www.w3.org/2000/svg">
<path opacity="0.08" d="M244.242 121.002H337.76M244.242 121.002C236.928 121.002 231 115.073 231 107.76V14.2416C231 6.92846 236.928 1 244.242 1H337.76C345.073 1 351.002 6.92845 351.002 14.2416M244.242 121.002C236.928 121.002 231 126.93 231 134.243V227.762C231 235.075 236.928 241.003 244.242 241.003M351.002 107.76V14.2416M351.002 107.76C351.002 115.073 345.073 121.002 337.76 121.002M351.002 107.76C351.002 115.073 356.93 121.002 364.243 121.002M337.76 121.002C345.073 121.002 351.002 126.93 351.002 134.243M351.002 14.2416C351.002 6.92845 356.93 1 364.243 1H457.762C465.075 1 471.003 6.92845 471.003 14.2416M364.243 121.002H457.762M364.243 121.002C356.93 121.002 351.002 126.93 351.002 134.243M471.003 107.76V14.2416M471.003 107.76C471.003 115.073 465.075 121.002 457.762 121.002M471.003 107.76C471.003 115.073 476.932 121.002 484.245 121.002M457.762 121.002C465.075 121.002 471.003 126.93 471.003 134.243M471.003 14.2416C471.003 6.92845 476.932 1 484.245 1H577.764C585.077 1 591.005 6.92845 591.005 14.2416M484.245 121.002H577.764M484.245 121.002C476.932 121.002 471.003 126.93 471.003 134.243M591.005 107.76V14.2416M591.005 107.76C591.005 115.073 585.077 121.002 577.764 121.002M591.005 107.76C591.005 115.073 596.934 121.002 604.247 121.002M577.764 121.002C585.077 121.002 591.005 126.93 591.005 134.243M591.005 14.2416C591.005 6.92845 596.934 1 604.247 1H697.765C705.078 1 711.007 6.92845 711.007 14.2416M604.247 121.002H697.765M604.247 121.002C596.934 121.002 591.005 126.93 591.005 134.243M711.007 107.76V14.2416M711.007 107.76C711.007 115.073 705.078 121.002 697.765 121.002M711.007 107.76C711.007 115.073 716.935 121.002 724.249 121.002M697.765 121.002C705.078 121.002 711.007 126.93 711.007 134.243M711.007 14.2416C711.007 6.92845 716.935 1.00002 724.249 1.00002H817.767C825.08 1.00002 831.009 6.92848 831.009 14.2416M724.249 121.002H817.767M724.249 121.002C716.935 121.002 711.007 126.93 711.007 134.243M831.009 107.76V14.2416M831.009 107.76C831.009 115.073 825.08 121.002 817.767 121.002M831.009 107.76C831.009 115.073 836.937 121.002 844.25 121.002M817.767 121.002C825.08 121.002 831.009 126.93 831.009 134.243M831.009 14.2416C831.009 6.92848 836.937 1.00002 844.25 1.00002H937.769C945.082 1.00002 951.01 6.92848 951.01 14.2416M844.25 121.002H937.769M844.25 121.002C836.937 121.002 831.009 126.93 831.009 134.243M951.01 107.76V14.2416M951.01 107.76C951.01 115.073 945.082 121.002 937.769 121.002M951.01 107.76C951.01 115.073 956.939 121.002 964.252 121.002M937.769 121.002C945.082 121.002 951.01 126.93 951.01 134.243M951.01 14.2416C951.01 6.92848 956.939 1.00002 964.252 1.00002H1057.77C1065.08 1.00002 1071.01 6.92848 1071.01 14.2416M964.252 121.002H1057.77M964.252 121.002C956.939 121.002 951.01 126.93 951.01 134.243M1071.01 107.76V14.2416M1071.01 107.76C1071.01 115.073 1065.08 121.002 1057.77 121.002M1071.01 107.76C1071.01 115.073 1076.94 121.002 1084.25 121.002M1057.77 121.002C1065.08 121.002 1071.01 126.93 1071.01 134.243M1071.01 14.2416C1071.01 6.92848 1076.94 1.00002 1084.25 1.00002H1177.77C1185.09 1.00002 1191.01 6.92848 1191.01 14.2416M1084.25 121.002H1177.77M1084.25 121.002C1076.94 121.002 1071.01 126.93 1071.01 134.243M1191.01 107.76V14.2416M1191.01 107.76C1191.01 115.073 1185.09 121.002 1177.77 121.002M1191.01 107.76C1191.01 115.073 1196.94 121.002 1204.26 121.002M1177.77 121.002C1185.09 121.002 1191.01 126.93 1191.01 134.243M1191.01 14.2416C1191.01 6.92848 1196.94 1 1204.26 1H1297.77C1305.09 1 1311.02 6.92845 1311.02 14.2416M1204.26 121.002H1297.77M1204.26 121.002C1196.94 121.002 1191.01 126.93 1191.01 134.243M1311.02 107.76V14.2416M1311.02 107.76C1311.02 115.073 1305.09 121.002 1297.77 121.002M1311.02 107.76C1311.02 115.073 1316.94 121.002 1324.26 121.002M1297.77 121.002C1305.09 121.002 1311.02 126.93 1311.02 134.243M1311.02 14.2416C1311.02 6.92845 1316.94 1 1324.26 1H1417.78C1425.09 1 1431.02 6.92845 1431.02 14.2416M1324.26 121.002H1417.78M1324.26 121.002C1316.94 121.002 1311.02 126.93 1311.02 134.243M1431.02 107.76V14.2416M1431.02 107.76C1431.02 115.073 1425.09 121.002 1417.78 121.002M1431.02 107.76C1431.02 115.073 1436.95 121.002 1444.26 121.002M1417.78 121.002C1425.09 121.002 1431.02 126.93 1431.02 134.243M1431.02 14.2416C1431.02 6.92845 1436.95 1 1444.26 1H1537.78C1545.09 1 1551.02 6.92845 1551.02 14.2416M1444.26 121.002H1537.78M1444.26 121.002C1436.95 121.002 1431.02 126.93 1431.02 134.243M1551.02 107.76V14.2416M1551.02 107.76C1551.02 115.073 1545.09 121.002 1537.78 121.002M1551.02 107.76C1551.02 115.073 1556.95 121.002 1564.26 121.002M1537.78 121.002C1545.09 121.002 1551.02 126.93 1551.02 134.243M1551.02 14.2416C1551.02 6.92845 1556.95 1 1564.26 1H1657.78C1665.09 1 1671.02 6.92845 1671.02 14.2416V107.76C1671.02 115.073 1665.09 121.002 1657.78 121.002M1564.26 121.002H1657.78M1564.26 121.002C1556.95 121.002 1551.02 126.93 1551.02 134.243M1657.78 121.002C1665.09 121.002 1671.02 126.93 1671.02 134.243V227.762C1671.02 235.075 1665.09 241.003 1657.78 241.003M244.242 241.003H337.76M244.242 241.003C236.928 241.003 231 246.932 231 254.245V347.764C231 355.077 236.928 361.005 244.242 361.005M351.002 227.762V134.243M351.002 227.762C351.002 235.075 345.073 241.003 337.76 241.003M351.002 227.762C351.002 235.075 356.93 241.003 364.243 241.003M337.76 241.003C345.073 241.003 351.002 246.932 351.002 254.245M364.243 241.003H457.762M364.243 241.003C356.93 241.003 351.002 246.932 351.002 254.245M471.003 227.762V134.243M471.003 227.762C471.003 235.075 465.075 241.003 457.762 241.003M471.003 227.762C471.003 235.075 476.932 241.003 484.245 241.003M457.762 241.003C465.075 241.003 471.003 246.932 471.003 254.245M484.245 241.003H577.764M484.245 241.003C476.932 241.003 471.003 246.932 471.003 254.245M591.005 227.762V134.243M591.005 227.762C591.005 235.075 585.077 241.003 577.764 241.003M591.005 227.762C591.005 235.075 596.934 241.003 604.247 241.003M577.764 241.003C585.077 241.003 591.005 246.932 591.005 254.245M604.247 241.003H697.765M604.247 241.003C596.934 241.003 591.005 246.932 591.005 254.245M711.007 227.762V134.243M711.007 227.762C711.007 235.075 705.078 241.003 697.765 241.003M711.007 227.762C711.007 235.075 716.935 241.003 724.249 241.003M697.765 241.003C705.078 241.003 711.007 246.932 711.007 254.245M724.249 241.003H817.767M724.249 241.003C716.935 241.003 711.007 246.932 711.007 254.245M831.009 227.762V134.243M831.009 227.762C831.009 235.075 825.08 241.003 817.767 241.003M831.009 227.762C831.009 235.075 836.937 241.003 844.25 241.003M817.767 241.003C825.08 241.003 831.009 246.932 831.009 254.245M844.25 241.003H937.769M844.25 241.003C836.937 241.003 831.009 246.932 831.009 254.245M951.01 227.762V134.243M951.01 227.762C951.01 235.075 945.082 241.003 937.769 241.003M951.01 227.762C951.01 235.075 956.939 241.003 964.252 241.003M937.769 241.003C945.082 241.003 951.01 246.932 951.01 254.245M964.252 241.003H1057.77M964.252 241.003C956.939 241.003 951.01 246.932 951.01 254.245M1071.01 227.762V134.243M1071.01 227.762C1071.01 235.075 1065.08 241.003 1057.77 241.003M1071.01 227.762C1071.01 235.075 1076.94 241.003 1084.25 241.003M1057.77 241.003C1065.08 241.003 1071.01 246.932 1071.01 254.245M1084.25 241.003H1177.77M1084.25 241.003C1076.94 241.003 1071.01 246.932 1071.01 254.245M1191.01 227.762V134.243M1191.01 227.762C1191.01 235.075 1185.09 241.003 1177.77 241.003M1191.01 227.762C1191.01 235.075 1196.94 241.003 1204.26 241.003M1177.77 241.003C1185.09 241.003 1191.01 246.932 1191.01 254.245M1204.26 241.003H1297.77M1204.26 241.003C1196.94 241.003 1191.01 246.932 1191.01 254.245M1311.02 227.762V134.243M1311.02 227.762C1311.02 235.075 1305.09 241.003 1297.77 241.003M1311.02 227.762C1311.02 235.075 1316.94 241.003 1324.26 241.003M1297.77 241.003C1305.09 241.003 1311.02 246.932 1311.02 254.245M1324.26 241.003H1417.78M1324.26 241.003C1316.94 241.003 1311.02 246.932 1311.02 254.245M1431.02 227.762V134.243M1431.02 227.762C1431.02 235.075 1425.09 241.003 1417.78 241.003M1431.02 227.762C1431.02 235.075 1436.95 241.003 1444.26 241.003M1417.78 241.003C1425.09 241.003 1431.02 246.932 1431.02 254.245M1444.26 241.003H1537.78M1444.26 241.003C1436.95 241.003 1431.02 246.932 1431.02 254.245M1551.02 227.762V134.243M1551.02 227.762C1551.02 235.075 1545.09 241.003 1537.78 241.003M1551.02 227.762C1551.02 235.075 1556.95 241.003 1564.26 241.003M1537.78 241.003C1545.09 241.003 1551.02 246.932 1551.02 254.245M1564.26 241.003H1657.78M1564.26 241.003C1556.95 241.003 1551.02 246.932 1551.02 254.245M1657.78 241.003C1665.09 241.003 1671.02 246.932 1671.02 254.245V347.764C1671.02 355.077 1665.09 361.005 1657.78 361.005M244.242 361.005H337.76M244.242 361.005C236.928 361.005 231 366.934 231 374.247V467.765C231 475.078 236.928 481.007 244.242 481.007M351.002 347.764V254.245M351.002 347.764C351.002 355.077 345.073 361.005 337.76 361.005M351.002 347.764C351.002 355.077 356.93 361.005 364.243 361.005M337.76 361.005C345.073 361.005 351.002 366.934 351.002 374.247M364.243 361.005H457.762M364.243 361.005C356.93 361.005 351.002 366.934 351.002 374.247M471.003 347.764V254.245M471.003 347.764C471.003 355.077 465.075 361.005 457.762 361.005M471.003 347.764C471.003 355.077 476.932 361.005 484.245 361.005M457.762 361.005C465.075 361.005 471.003 366.934 471.003 374.247M484.245 361.005H577.764M484.245 361.005C476.932 361.005 471.003 366.934 471.003 374.247M591.005 347.764V254.245M591.005 347.764C591.005 355.077 585.077 361.005 577.764 361.005M591.005 347.764C591.005 355.077 596.934 361.005 604.247 361.005M577.764 361.005C585.077 361.005 591.005 366.934 591.005 374.247M604.247 361.005H697.765M604.247 361.005C596.934 361.005 591.005 366.934 591.005 374.247M711.007 347.764V254.245M711.007 347.764C711.007 355.077 705.078 361.005 697.765 361.005M711.007 347.764C711.007 355.077 716.935 361.005 724.249 361.005M697.765 361.005C705.078 361.005 711.007 366.934 711.007 374.247M724.249 361.005H817.767M724.249 361.005C716.935 361.005 711.007 366.934 711.007 374.247M831.009 347.764V254.245M831.009 347.764C831.009 355.077 825.08 361.005 817.767 361.005M831.009 347.764C831.009 355.077 836.937 361.005 844.25 361.005M817.767 361.005C825.08 361.005 831.009 366.933 831.009 374.246M844.25 361.005H937.769M844.25 361.005C836.937 361.005 831.009 366.933 831.009 374.246M951.01 347.764V254.245M951.01 347.764C951.01 355.077 945.082 361.005 937.769 361.005M951.01 347.764C951.01 355.077 956.939 361.005 964.252 361.005M937.769 361.005C945.082 361.005 951.01 366.933 951.01 374.246M964.252 361.005H1057.77M964.252 361.005C956.939 361.005 951.01 366.933 951.01 374.246M1071.01 347.764V254.245M1071.01 347.764C1071.01 355.077 1065.08 361.005 1057.77 361.005M1071.01 347.764C1071.01 355.077 1076.94 361.005 1084.25 361.005M1057.77 361.005C1065.08 361.005 1071.01 366.933 1071.01 374.246M1084.25 361.005H1177.77M1084.25 361.005C1076.94 361.005 1071.01 366.933 1071.01 374.246M1191.01 347.764V254.245M1191.01 347.764C1191.01 355.077 1185.09 361.005 1177.77 361.005M1191.01 347.764C1191.01 355.077 1196.94 361.005 1204.26 361.005M1177.77 361.005C1185.09 361.005 1191.01 366.933 1191.01 374.246M1204.26 361.005H1297.77M1204.26 361.005C1196.94 361.005 1191.01 366.933 1191.01 374.246M1311.02 347.764V254.245M1311.02 347.764C1311.02 355.077 1305.09 361.005 1297.77 361.005M1311.02 347.764C1311.02 355.077 1316.94 361.005 1324.26 361.005M1297.77 361.005C1305.09 361.005 1311.02 366.934 1311.02 374.247M1324.26 361.005H1417.78M1324.26 361.005C1316.94 361.005 1311.02 366.934 1311.02 374.247M1431.02 347.764V254.245M1431.02 347.764C1431.02 355.077 1425.09 361.005 1417.78 361.005M1431.02 347.764C1431.02 355.077 1436.95 361.005 1444.26 361.005M1417.78 361.005C1425.09 361.005 1431.02 366.934 1431.02 374.247M1444.26 361.005H1537.78M1444.26 361.005C1436.95 361.005 1431.02 366.934 1431.02 374.247M1551.02 347.764V254.245M1551.02 347.764C1551.02 355.077 1545.09 361.005 1537.78 361.005M1551.02 347.764C1551.02 355.077 1556.95 361.005 1564.26 361.005M1537.78 361.005C1545.09 361.005 1551.02 366.934 1551.02 374.247M1564.26 361.005H1657.78M1564.26 361.005C1556.95 361.005 1551.02 366.934 1551.02 374.247M1657.78 361.005C1665.09 361.005 1671.02 366.934 1671.02 374.247V467.765C1671.02 475.078 1665.09 481.007 1657.78 481.007M244.242 481.007H337.76M244.242 481.007C236.928 481.007 231 486.935 231 494.248V587.767C231 595.08 236.928 601.008 244.242 601.008M351.002 467.765V374.247M351.002 467.765C351.002 475.078 345.073 481.007 337.76 481.007M351.002 467.765C351.002 475.078 356.93 481.007 364.243 481.007M337.76 481.007C345.073 481.007 351.002 486.935 351.002 494.248M364.243 481.007H457.762M364.243 481.007C356.93 481.007 351.002 486.935 351.002 494.248M471.003 467.765V374.247M471.003 467.765C471.003 475.078 465.075 481.007 457.762 481.007M471.003 467.765C471.003 475.078 476.932 481.007 484.245 481.007M457.762 481.007C465.075 481.007 471.003 486.935 471.003 494.248M484.245 481.007H577.764M484.245 481.007C476.932 481.007 471.003 486.935 471.003 494.248M591.005 467.765V374.247M591.005 467.765C591.005 475.078 585.077 481.007 577.764 481.007M591.005 467.765C591.005 475.078 596.934 481.007 604.247 481.007M577.764 481.007C585.077 481.007 591.005 486.935 591.005 494.248M604.247 481.007H697.765M604.247 481.007C596.934 481.007 591.005 486.935 591.005 494.248M711.007 467.765V374.247M711.007 467.765C711.007 475.078 705.078 481.007 697.765 481.007M711.007 467.765C711.007 475.078 716.935 481.007 724.249 481.007M697.765 481.007C705.078 481.007 711.007 486.935 711.007 494.248M724.249 481.007H817.767M724.249 481.007C716.935 481.007 711.007 486.935 711.007 494.248M831.009 467.765V374.246M831.009 467.765C831.009 475.078 825.08 481.007 817.767 481.007M831.009 467.765C831.009 475.078 836.937 481.007 844.25 481.007M817.767 481.007C825.08 481.007 831.009 486.935 831.009 494.248M844.25 481.007H937.769M844.25 481.007C836.937 481.007 831.009 486.935 831.009 494.248M951.01 467.765V374.246M951.01 467.765C951.01 475.078 945.082 481.007 937.769 481.007M951.01 467.765C951.01 475.078 956.939 481.007 964.252 481.007M937.769 481.007C945.082 481.007 951.01 486.935 951.01 494.248M964.252 481.007H1057.77M964.252 481.007C956.939 481.007 951.01 486.935 951.01 494.248M1071.01 467.765V374.246M1071.01 467.765C1071.01 475.078 1065.08 481.007 1057.77 481.007M1071.01 467.765C1071.01 475.078 1076.94 481.007 1084.25 481.007M1057.77 481.007C1065.08 481.007 1071.01 486.935 1071.01 494.248M1084.25 481.007H1177.77M1084.25 481.007C1076.94 481.007 1071.01 486.935 1071.01 494.248M1191.01 467.765V374.246M1191.01 467.765C1191.01 475.078 1185.09 481.007 1177.77 481.007M1191.01 467.765C1191.01 475.078 1196.94 481.007 1204.26 481.007M1177.77 481.007C1185.09 481.007 1191.01 486.935 1191.01 494.248M1204.26 481.007H1297.77M1204.26 481.007C1196.94 481.007 1191.01 486.935 1191.01 494.248M1311.02 467.765V374.247M1311.02 467.765C1311.02 475.078 1305.09 481.007 1297.77 481.007M1311.02 467.765C1311.02 475.078 1316.94 481.007 1324.26 481.007M1297.77 481.007C1305.09 481.007 1311.02 486.935 1311.02 494.248M1324.26 481.007H1417.78M1324.26 481.007C1316.94 481.007 1311.02 486.935 1311.02 494.248M1431.02 467.765V374.247M1431.02 467.765C1431.02 475.078 1425.09 481.007 1417.78 481.007M1431.02 467.765C1431.02 475.078 1436.95 481.007 1444.26 481.007M1417.78 481.007C1425.09 481.007 1431.02 486.935 1431.02 494.248M1444.26 481.007H1537.78M1444.26 481.007C1436.95 481.007 1431.02 486.935 1431.02 494.248M1551.02 467.765V374.247M1551.02 467.765C1551.02 475.078 1545.09 481.007 1537.78 481.007M1551.02 467.765C1551.02 475.078 1556.95 481.007 1564.26 481.007M1537.78 481.007C1545.09 481.007 1551.02 486.935 1551.02 494.248M1564.26 481.007H1657.78M1564.26 481.007C1556.95 481.007 1551.02 486.935 1551.02 494.248M1657.78 481.007C1665.09 481.007 1671.02 486.935 1671.02 494.248V587.767C1671.02 595.08 1665.09 601.008 1657.78 601.008M244.242 601.008H337.76M244.242 601.008C236.928 601.008 231 606.937 231 614.25V707.769C231 715.082 236.928 721.01 244.242 721.01M351.002 587.767V494.248M351.002 587.767C351.002 595.08 345.073 601.008 337.76 601.008M351.002 587.767C351.002 595.08 356.93 601.008 364.243 601.008M337.76 601.008C345.073 601.008 351.002 606.937 351.002 614.25M364.243 601.008H457.762M364.243 601.008C356.93 601.008 351.002 606.937 351.002 614.25M471.003 587.767V494.248M471.003 587.767C471.003 595.08 465.075 601.008 457.762 601.008M471.003 587.767C471.003 595.08 476.932 601.008 484.245 601.008M457.762 601.008C465.075 601.008 471.003 606.937 471.003 614.25M484.245 601.008H577.764M484.245 601.008C476.932 601.008 471.003 606.937 471.003 614.25M591.005 587.767V494.248M591.005 587.767C591.005 595.08 585.077 601.008 577.764 601.008M591.005 587.767C591.005 595.08 596.934 601.008 604.247 601.008M577.764 601.008C585.077 601.008 591.005 606.937 591.005 614.25M604.247 601.008H697.765M604.247 601.008C596.934 601.008 591.005 606.937 591.005 614.25M711.007 587.767V494.248M711.007 587.767C711.007 595.08 705.078 601.008 697.765 601.008M711.007 587.767C711.007 595.08 716.935 601.008 724.249 601.008M697.765 601.008C705.078 601.008 711.007 606.937 711.007 614.25M724.249 601.008H817.767M724.249 601.008C716.935 601.008 711.007 606.937 711.007 614.25M831.009 587.767V494.248M831.009 587.767C831.009 595.08 825.08 601.008 817.767 601.008M831.009 587.767C831.009 595.08 836.937 601.008 844.25 601.008M817.767 601.008C825.08 601.008 831.009 606.937 831.009 614.25M844.25 601.008H937.769M844.25 601.008C836.937 601.008 831.009 606.937 831.009 614.25M951.01 587.767V494.248M951.01 587.767C951.01 595.08 945.082 601.008 937.769 601.008M951.01 587.767C951.01 595.08 956.939 601.008 964.252 601.008M937.769 601.008C945.082 601.008 951.01 606.937 951.01 614.25M964.252 601.008H1057.77M964.252 601.008C956.939 601.008 951.01 606.937 951.01 614.25M1071.01 587.767V494.248M1071.01 587.767C1071.01 595.08 1065.08 601.008 1057.77 601.008M1071.01 587.767C1071.01 595.08 1076.94 601.008 1084.25 601.008M1057.77 601.008C1065.08 601.008 1071.01 606.937 1071.01 614.25M1084.25 601.008H1177.77M1084.25 601.008C1076.94 601.008 1071.01 606.937 1071.01 614.25M1191.01 587.767V494.248M1191.01 587.767C1191.01 595.08 1185.09 601.008 1177.77 601.008M1191.01 587.767C1191.01 595.08 1196.94 601.008 1204.26 601.008M1177.77 601.008C1185.09 601.008 1191.01 606.937 1191.01 614.25M1204.26 601.008H1297.77M1204.26 601.008C1196.94 601.008 1191.01 606.937 1191.01 614.25M1311.02 587.767V494.248M1311.02 587.767C1311.02 595.08 1305.09 601.008 1297.77 601.008M1311.02 587.767C1311.02 595.08 1316.94 601.008 1324.26 601.008M1297.77 601.008C1305.09 601.008 1311.02 606.937 1311.02 614.25M1324.26 601.008H1417.78M1324.26 601.008C1316.94 601.008 1311.02 606.937 1311.02 614.25M1431.02 587.767V494.248M1431.02 587.767C1431.02 595.08 1425.09 601.008 1417.78 601.008M1431.02 587.767C1431.02 595.08 1436.95 601.008 1444.26 601.008M1417.78 601.008C1425.09 601.008 1431.02 606.937 1431.02 614.25M1444.26 601.008H1537.78M1444.26 601.008C1436.95 601.008 1431.02 606.937 1431.02 614.25M1551.02 587.767V494.248M1551.02 587.767C1551.02 595.08 1545.09 601.008 1537.78 601.008M1551.02 587.767C1551.02 595.08 1556.95 601.008 1564.26 601.008M1537.78 601.008C1545.09 601.008 1551.02 606.937 1551.02 614.25M1564.26 601.008H1657.78M1564.26 601.008C1556.95 601.008 1551.02 606.937 1551.02 614.25M1657.78 601.008C1665.09 601.008 1671.02 606.937 1671.02 614.25V707.769C1671.02 715.082 1665.09 721.01 1657.78 721.01M244.242 721.01H337.76M244.242 721.01C236.928 721.01 231 726.939 231 734.252V827.77C231 835.083 236.928 841.012 244.242 841.012M351.002 707.769V614.25M351.002 707.769C351.002 715.082 345.073 721.01 337.76 721.01M351.002 707.769C351.002 715.082 356.93 721.01 364.243 721.01M337.76 721.01C345.073 721.01 351.002 726.939 351.002 734.252M364.243 721.01H457.762M364.243 721.01C356.93 721.01 351.002 726.939 351.002 734.252M471.003 707.769V614.25M471.003 707.769C471.003 715.082 465.075 721.01 457.762 721.01M471.003 707.769C471.003 715.082 476.932 721.01 484.245 721.01M457.762 721.01C465.075 721.01 471.003 726.939 471.003 734.252M484.245 721.01H577.764M484.245 721.01C476.932 721.01 471.003 726.939 471.003 734.252M591.005 707.769V614.25M591.005 707.769C591.005 715.082 585.077 721.01 577.764 721.01M591.005 707.769C591.005 715.082 596.934 721.01 604.247 721.01M577.764 721.01C585.077 721.01 591.005 726.939 591.005 734.252M604.247 721.01H697.765M604.247 721.01C596.934 721.01 591.005 726.939 591.005 734.252M711.007 707.769V614.25M711.007 707.769C711.007 715.082 705.078 721.01 697.765 721.01M711.007 707.769C711.007 715.082 716.935 721.01 724.248 721.01M697.765 721.01C705.078 721.01 711.007 726.939 711.007 734.252M724.248 721.01H817.767M724.248 721.01C716.935 721.01 711.007 726.939 711.007 734.252M831.009 707.769V614.25M831.009 707.769C831.009 715.082 825.08 721.01 817.767 721.01M831.009 707.769C831.009 715.082 836.937 721.01 844.25 721.01M817.767 721.01C825.08 721.01 831.009 726.939 831.009 734.252M844.25 721.01H937.769M844.25 721.01C836.937 721.01 831.009 726.939 831.009 734.252M951.01 707.769V614.25M951.01 707.769C951.01 715.082 945.082 721.01 937.769 721.01M951.01 707.769C951.01 715.082 956.939 721.01 964.252 721.01M937.769 721.01C945.082 721.01 951.01 726.939 951.01 734.252M964.252 721.01H1057.77M964.252 721.01C956.939 721.01 951.01 726.939 951.01 734.252M1071.01 707.769V614.25M1071.01 707.769C1071.01 715.082 1065.08 721.01 1057.77 721.01M1071.01 707.769C1071.01 715.082 1076.94 721.01 1084.25 721.01M1057.77 721.01C1065.08 721.01 1071.01 726.939 1071.01 734.252M1084.25 721.01H1177.77M1084.25 721.01C1076.94 721.01 1071.01 726.939 1071.01 734.252M1191.01 707.769V614.25M1191.01 707.769C1191.01 715.082 1185.09 721.01 1177.77 721.01M1191.01 707.769C1191.01 715.082 1196.94 721.01 1204.26 721.01M1177.77 721.01C1185.09 721.01 1191.01 726.939 1191.01 734.252M1204.26 721.01H1297.77M1204.26 721.01C1196.94 721.01 1191.01 726.939 1191.01 734.252M1311.02 707.769V614.25M1311.02 707.769C1311.02 715.082 1305.09 721.01 1297.77 721.01M1311.02 707.769C1311.02 715.082 1316.94 721.01 1324.26 721.01M1297.77 721.01C1305.09 721.01 1311.02 726.939 1311.02 734.252M1324.26 721.01H1417.78M1324.26 721.01C1316.94 721.01 1311.02 726.939 1311.02 734.252M1431.02 707.769V614.25M1431.02 707.769C1431.02 715.082 1425.09 721.01 1417.78 721.01M1431.02 707.769C1431.02 715.082 1436.95 721.01 1444.26 721.01M1417.78 721.01C1425.09 721.01 1431.02 726.939 1431.02 734.252M1444.26 721.01H1537.78M1444.26 721.01C1436.95 721.01 1431.02 726.939 1431.02 734.252M1551.02 707.769V614.25M1551.02 707.769C1551.02 715.082 1545.09 721.01 1537.78 721.01M1551.02 707.769C1551.02 715.082 1556.95 721.01 1564.26 721.01M1537.78 721.01C1545.09 721.01 1551.02 726.939 1551.02 734.252M1564.26 721.01H1657.78M1564.26 721.01C1556.95 721.01 1551.02 726.939 1551.02 734.252M1657.78 721.01C1665.09 721.01 1671.02 726.939 1671.02 734.252V827.77C1671.02 835.083 1665.09 841.012 1657.78 841.012M244.242 841.012H337.76M244.242 841.012C236.928 841.012 231 846.94 231 854.254V947.772C231 955.085 236.928 961.014 244.242 961.014M351.002 827.77V734.252M351.002 827.77C351.002 835.083 345.073 841.012 337.76 841.012M351.002 827.77C351.002 835.083 356.93 841.012 364.243 841.012M337.76 841.012C345.073 841.012 351.002 846.94 351.002 854.254M364.243 841.012H457.762M364.243 841.012C356.93 841.012 351.002 846.94 351.002 854.254M471.003 827.77V734.252M471.003 827.77C471.003 835.083 465.075 841.012 457.762 841.012M471.003 827.77C471.003 835.083 476.932 841.012 484.245 841.012M457.762 841.012C465.075 841.012 471.003 846.94 471.003 854.254M484.245 841.012H577.764M484.245 841.012C476.932 841.012 471.003 846.94 471.003 854.254M591.005 827.77V734.252M591.005 827.77C591.005 835.083 585.077 841.012 577.764 841.012M591.005 827.77C591.005 835.083 596.934 841.012 604.247 841.012M577.764 841.012C585.077 841.012 591.005 846.94 591.005 854.254M604.247 841.012H697.765M604.247 841.012C596.934 841.012 591.005 846.94 591.005 854.254M711.007 827.77V734.252M711.007 827.77C711.007 835.083 705.078 841.012 697.765 841.012M711.007 827.77C711.007 835.083 716.935 841.012 724.249 841.012M697.765 841.012C705.078 841.012 711.007 846.94 711.007 854.254M724.249 841.012H817.767M724.249 841.012C716.935 841.012 711.007 846.94 711.007 854.254M831.009 827.77V734.252M831.009 827.77C831.009 835.083 825.08 841.012 817.767 841.012M831.009 827.77C831.009 835.083 836.937 841.012 844.25 841.012M817.767 841.012C825.08 841.012 831.009 846.941 831.009 854.254M844.25 841.012H937.769M844.25 841.012C836.937 841.012 831.009 846.941 831.009 854.254M951.01 827.77V734.252M951.01 827.77C951.01 835.083 945.082 841.012 937.769 841.012M951.01 827.77C951.01 835.083 956.939 841.012 964.252 841.012M937.769 841.012C945.082 841.012 951.01 846.941 951.01 854.254M964.252 841.012H1057.77M964.252 841.012C956.939 841.012 951.01 846.941 951.01 854.254M1071.01 827.77V734.252M1071.01 827.77C1071.01 835.083 1065.08 841.012 1057.77 841.012M1071.01 827.77C1071.01 835.083 1076.94 841.012 1084.25 841.012M1057.77 841.012C1065.08 841.012 1071.01 846.941 1071.01 854.254M1084.25 841.012H1177.77M1084.25 841.012C1076.94 841.012 1071.01 846.941 1071.01 854.254M1191.01 827.77V734.252M1191.01 827.77C1191.01 835.083 1185.09 841.012 1177.77 841.012M1191.01 827.77C1191.01 835.083 1196.94 841.012 1204.26 841.012M1177.77 841.012C1185.09 841.012 1191.01 846.941 1191.01 854.254M1204.26 841.012H1297.77M1204.26 841.012C1196.94 841.012 1191.01 846.941 1191.01 854.254M1311.02 827.77V734.252M1311.02 827.77C1311.02 835.083 1305.09 841.012 1297.77 841.012M1311.02 827.77C1311.02 835.083 1316.94 841.012 1324.26 841.012M1297.77 841.012C1305.09 841.012 1311.02 846.94 1311.02 854.254M1324.26 841.012H1417.78M1324.26 841.012C1316.94 841.012 1311.02 846.94 1311.02 854.254M1431.02 827.77V734.252M1431.02 827.77C1431.02 835.083 1425.09 841.012 1417.78 841.012M1431.02 827.77C1431.02 835.083 1436.95 841.012 1444.26 841.012M1417.78 841.012C1425.09 841.012 1431.02 846.94 1431.02 854.254M1444.26 841.012H1537.78M1444.26 841.012C1436.95 841.012 1431.02 846.94 1431.02 854.254M1551.02 827.77V734.252M1551.02 827.77C1551.02 835.083 1545.09 841.012 1537.78 841.012M1551.02 827.77C1551.02 835.083 1556.95 841.012 1564.26 841.012M1537.78 841.012C1545.09 841.012 1551.02 846.94 1551.02 854.254M1564.26 841.012H1657.78M1564.26 841.012C1556.95 841.012 1551.02 846.94 1551.02 854.254M1657.78 841.012C1665.09 841.012 1671.02 846.94 1671.02 854.254V947.772C1671.02 955.085 1665.09 961.014 1657.78 961.014M244.242 961.014H337.76M244.242 961.014C236.928 961.014 231 966.942 231 974.255V1067.77C231 1075.09 236.928 1081.02 244.242 1081.02H337.76C345.073 1081.02 351.002 1075.09 351.002 1067.77M351.002 947.772V854.254M351.002 947.772C351.002 955.085 345.073 961.014 337.76 961.014M351.002 947.772C351.002 955.085 356.93 961.014 364.243 961.014M337.76 961.014C345.073 961.014 351.002 966.942 351.002 974.255M364.243 961.014H457.762M364.243 961.014C356.93 961.014 351.002 966.942 351.002 974.255M471.003 947.772V854.254M471.003 947.772C471.003 955.085 465.075 961.014 457.762 961.014M471.003 947.772C471.003 955.085 476.932 961.014 484.245 961.014M457.762 961.014C465.075 961.014 471.003 966.942 471.003 974.255M484.245 961.014H577.764M484.245 961.014C476.932 961.014 471.003 966.942 471.003 974.255M591.005 947.772V854.254M591.005 947.772C591.005 955.085 585.077 961.014 577.764 961.014M591.005 947.772C591.005 955.085 596.934 961.014 604.247 961.014M577.764 961.014C585.077 961.014 591.005 966.942 591.005 974.255M604.247 961.014H697.765M604.247 961.014C596.934 961.014 591.005 966.942 591.005 974.255M711.007 947.772V854.254M711.007 947.772C711.007 955.085 705.078 961.014 697.765 961.014M711.007 947.772C711.007 955.085 716.935 961.014 724.249 961.014M697.765 961.014C705.078 961.014 711.007 966.942 711.007 974.255M724.249 961.014H817.767M724.249 961.014C716.935 961.014 711.007 966.942 711.007 974.255M831.009 947.772V854.254M831.009 947.772C831.009 955.085 825.08 961.014 817.767 961.014M831.009 947.772C831.009 955.085 836.937 961.014 844.25 961.014M817.767 961.014C825.08 961.014 831.009 966.942 831.009 974.255M844.25 961.014H937.769M844.25 961.014C836.937 961.014 831.009 966.942 831.009 974.255M951.01 947.772V854.254M951.01 947.772C951.01 955.085 945.082 961.014 937.769 961.014M951.01 947.772C951.01 955.085 956.939 961.014 964.252 961.014M937.769 961.014C945.082 961.014 951.01 966.942 951.01 974.255M964.252 961.014H1057.77M964.252 961.014C956.939 961.014 951.01 966.942 951.01 974.255M1071.01 947.772V854.254M1071.01 947.772C1071.01 955.085 1065.08 961.014 1057.77 961.014M1071.01 947.772C1071.01 955.085 1076.94 961.014 1084.25 961.014M1057.77 961.014C1065.08 961.014 1071.01 966.942 1071.01 974.255M1084.25 961.014H1177.77M1084.25 961.014C1076.94 961.014 1071.01 966.942 1071.01 974.255M1191.01 947.772V854.254M1191.01 947.772C1191.01 955.085 1185.09 961.014 1177.77 961.014M1191.01 947.772C1191.01 955.085 1196.94 961.014 1204.26 961.014M1177.77 961.014C1185.09 961.014 1191.01 966.942 1191.01 974.255M1204.26 961.014H1297.77M1204.26 961.014C1196.94 961.014 1191.01 966.942 1191.01 974.255M1311.02 947.772V854.254M1311.02 947.772C1311.02 955.085 1305.09 961.014 1297.77 961.014M1311.02 947.772C1311.02 955.085 1316.94 961.014 1324.26 961.014M1297.77 961.014C1305.09 961.014 1311.02 966.942 1311.02 974.255M1324.26 961.014H1417.78M1324.26 961.014C1316.94 961.014 1311.02 966.942 1311.02 974.255M1431.02 947.772V854.254M1431.02 947.772C1431.02 955.085 1425.09 961.014 1417.78 961.014M1431.02 947.772C1431.02 955.085 1436.95 961.014 1444.26 961.014M1417.78 961.014C1425.09 961.014 1431.02 966.942 1431.02 974.255M1444.26 961.014H1537.78M1444.26 961.014C1436.95 961.014 1431.02 966.942 1431.02 974.255M1551.02 947.772V854.254M1551.02 947.772C1551.02 955.085 1545.09 961.014 1537.78 961.014M1551.02 947.772C1551.02 955.085 1556.95 961.014 1564.26 961.014M1537.78 961.014C1545.09 961.014 1551.02 966.942 1551.02 974.255M1564.26 961.014H1657.78M1564.26 961.014C1556.95 961.014 1551.02 966.942 1551.02 974.255M1657.78 961.014C1665.09 961.014 1671.02 966.942 1671.02 974.255V1067.77C1671.02 1075.09 1665.09 1081.02 1657.78 1081.02H1564.26C1556.95 1081.02 1551.02 1075.09 1551.02 1067.77M351.002 1067.77V974.255M351.002 1067.77C351.002 1075.09 356.93 1081.02 364.243 1081.02H457.762C465.075 1081.02 471.003 1075.09 471.003 1067.77M471.003 1067.77V974.255M471.003 1067.77C471.003 1075.09 476.932 1081.02 484.245 1081.02H577.764C585.077 1081.02 591.005 1075.09 591.005 1067.77M591.005 1067.77V974.255M591.005 1067.77C591.005 1075.09 596.934 1081.02 604.247 1081.02H697.765C705.078 1081.02 711.007 1075.09 711.007 1067.77M711.007 1067.77V974.255M711.007 1067.77C711.007 1075.09 716.935 1081.02 724.249 1081.02H817.767C825.08 1081.02 831.009 1075.09 831.009 1067.77M831.009 1067.77V974.255M831.009 1067.77C831.009 1075.09 836.937 1081.02 844.25 1081.02H937.769C945.082 1081.02 951.01 1075.09 951.01 1067.77M951.01 1067.77V974.255M951.01 1067.77C951.01 1075.09 956.939 1081.02 964.252 1081.02H1057.77C1065.08 1081.02 1071.01 1075.09 1071.01 1067.77M1071.01 1067.77V974.255M1071.01 1067.77C1071.01 1075.09 1076.94 1081.02 1084.25 1081.02H1177.77C1185.09 1081.02 1191.01 1075.09 1191.01 1067.77M1191.01 1067.77V974.255M1191.01 1067.77C1191.01 1075.09 1196.94 1081.02 1204.26 1081.02H1297.77C1305.09 1081.02 1311.02 1075.09 1311.02 1067.77M1311.02 1067.77V974.255M1311.02 1067.77C1311.02 1075.09 1316.94 1081.02 1324.26 1081.02H1417.78C1425.09 1081.02 1431.02 1075.09 1431.02 1067.77M1431.02 1067.77V974.255M1431.02 1067.77C1431.02 1075.09 1436.95 1081.02 1444.26 1081.02H1537.78C1545.09 1081.02 1551.02 1075.09 1551.02 1067.77M1551.02 1067.77V974.255" stroke="url(#paint0_linear_2008_22)" stroke-width="1.2414"/>
<path opacity="0.25" d="M1551.02 130.934V227.763C1551.02 235.076 1556.95 241.004 1564.26 241.004H1657.78C1665.1 241.004 1671.02 246.933 1671.02 254.246V347.765C1671.02 355.078 1676.95 361.006 1684.27 361.006H1777.78C1785.1 361.006 1791.03 366.935 1791.03 374.248V467.766C1791.03 475.079 1796.95 481.008 1804.27 481.008H1897.79C1905.1 481.008 1911.03 486.936 1911.03 494.249V587.768C1911.03 595.081 1916.96 601.01 1924.27 601.01H2021.1M1431.02 130.934V227.763C1431.02 235.076 1436.95 241.004 1444.26 241.004H1537.78C1545.09 241.004 1551.02 246.933 1551.02 254.246V347.765C1551.02 355.078 1556.95 361.006 1564.26 361.006H1657.78C1665.1 361.006 1671.02 366.935 1671.02 374.248V467.766C1671.02 475.079 1665.1 481.008 1657.78 481.008H1564.26C1556.95 481.008 1551.02 475.079 1551.02 467.766V372.593L1550.91 371.81C1550.02 365.813 1544.93 361.335 1538.87 361.218L1527.85 361.006H1444.26C1436.95 361.006 1431.02 366.935 1431.02 374.248V467.766C1431.02 475.079 1436.95 481.008 1444.26 481.008H1538.61L1541.75 481.217C1546.97 481.565 1551.02 485.898 1551.02 491.127V501.284M1551.02 490.939V587.768C1551.02 595.081 1556.95 601.01 1564.26 601.01H1657.78C1665.1 601.01 1671.02 606.938 1671.02 614.251V707.77C1671.02 715.083 1676.95 721.011 1684.27 721.011H1777.78C1785.1 721.011 1791.03 726.94 1791.03 734.253V827.771C1791.03 835.085 1796.95 841.013 1804.27 841.013H1897.79C1905.1 841.013 1911.03 846.941 1911.03 854.255V947.773C1911.03 955.086 1916.96 961.015 1924.27 961.015H2021.1" stroke="url(#paint1_linear_2008_22)" stroke-opacity="0.8" stroke-width="1.5"/>
<rect opacity="0.03" x="1552.25" y="122.153" width="118.197" height="119.182" rx="11.8197" fill="url(#paint2_linear_2008_22)"/>
<rect opacity="0.03" x="1311.91" y="721.019" width="119.182" height="119.182" rx="11.8197" fill="url(#paint3_linear_2008_22)"/>
<path opacity="0.25" d="M470.977 130.934V227.763C470.977 235.076 465.048 241.004 457.735 241.004H364.217C356.904 241.004 350.975 246.933 350.975 254.246V347.765C350.975 355.078 345.047 361.006 337.734 361.006H244.215C236.902 361.006 230.973 366.935 230.973 374.248V467.766C230.973 475.079 225.045 481.008 217.732 481.008H124.213C116.9 481.008 110.972 486.936 110.972 494.249V587.768C110.972 595.081 105.043 601.01 97.7301 601.01H0.901075M590.979 130.934V227.763C590.979 235.076 585.05 241.004 577.737 241.004H484.218C476.905 241.004 470.977 246.933 470.977 254.246V347.765C470.977 355.078 465.048 361.006 457.735 361.006H364.217C356.904 361.006 350.975 366.935 350.975 374.248V467.766C350.975 475.079 356.904 481.008 364.217 481.008H457.735C465.048 481.008 470.977 475.079 470.977 467.766V372.593L471.093 371.81C471.981 365.813 477.072 361.335 483.134 361.218L494.15 361.006H577.737C585.05 361.006 590.979 366.935 590.979 374.248V467.766C590.979 475.079 585.05 481.008 577.737 481.008H483.391L480.247 481.217C475.031 481.565 470.977 485.898 470.977 491.127V501.284M470.977 490.939V587.768C470.977 595.081 465.048 601.01 457.735 601.01H364.217C356.904 601.01 350.975 606.938 350.975 614.251V707.77C350.975 715.083 345.047 721.011 337.734 721.011H244.215C236.902 721.011 230.973 726.94 230.973 734.253V827.771C230.973 835.085 225.045 841.013 217.732 841.013H124.213C116.9 841.013 110.972 846.941 110.972 854.255V947.773C110.972 955.086 105.043 961.015 97.7301 961.015H0.901075" stroke="url(#paint4_linear_2008_22)" stroke-opacity="0.8" stroke-width="1.5"/>
<g filter="url(#filter0_d_2008_22)">
<rect x="350.415" y="602" width="120" height="119" rx="11.8197" fill="url(#paint5_linear_2008_22)" fill-opacity="0.03" shape-rendering="crispEdges"/>
</g>
<g filter="url(#filter1_d_2008_22)">
<rect x="471.413" y="122" width="119" height="119" rx="11.8197" fill="url(#paint6_linear_2008_22)" fill-opacity="0.03" shape-rendering="crispEdges"/>
</g>
<g filter="url(#filter2_d_2008_22)">
<rect x="231.394" y="359.532" width="119.182" height="119.182" rx="11.8197" fill="url(#paint7_linear_2008_22)" fill-opacity="0.03" shape-rendering="crispEdges"/>
</g>
<g filter="url(#filter3_d_2008_22)">
<path d="M1311.41 253.82C1311.41 247.292 1316.7 242 1323.23 242H1418.59C1425.12 242 1430.41 247.292 1430.41 253.82V349.18C1430.41 355.708 1425.12 361 1418.59 361H1323.23C1316.7 361 1311.41 355.708 1311.41 349.18V253.82Z" fill="url(#paint8_linear_2008_22)" fill-opacity="0.03" shape-rendering="crispEdges"/>
</g>
<rect x="1432.41" y="480" width="119" height="119" rx="11.8197" fill="url(#paint9_linear_2008_22)" fill-opacity="0.03"/>
<defs>
<filter id="filter0_d_2008_22" x="330.415" y="600" width="160" height="159" filterUnits="userSpaceOnUse" color-interpolation-filters="sRGB">
<feFlood flood-opacity="0" result="BackgroundImageFix"/>
<feColorMatrix in="SourceAlpha" type="matrix" values="0 0 0 0 0 0 0 0 0 0 0 0 0 0 0 0 0 0 127 0" result="hardAlpha"/>
<feOffset dy="18"/>
<feGaussianBlur stdDeviation="10"/>
<feComposite in2="hardAlpha" operator="out"/>
<feColorMatrix type="matrix" values="0 0 0 0 0.787386 0 0 0 0 0.787386 0 0 0 0 0.787386 0 0 0 0.15 0"/>
<feBlend mode="normal" in2="BackgroundImageFix" result="effect1_dropShadow_2008_22"/>
<feBlend mode="normal" in="SourceGraphic" in2="effect1_dropShadow_2008_22" result="shape"/>
</filter>
<filter id="filter1_d_2008_22" x="451.413" y="120" width="159" height="159" filterUnits="userSpaceOnUse" color-interpolation-filters="sRGB">
<feFlood flood-opacity="0" result="BackgroundImageFix"/>
<feColorMatrix in="SourceAlpha" type="matrix" values="0 0 0 0 0 0 0 0 0 0 0 0 0 0 0 0 0 0 127 0" result="hardAlpha"/>
<feOffset dy="18"/>
<feGaussianBlur stdDeviation="10"/>
<feComposite in2="hardAlpha" operator="out"/>
<feColorMatrix type="matrix" values="0 0 0 0 0.787386 0 0 0 0 0.787386 0 0 0 0 0.787386 0 0 0 0.15 0"/>
<feBlend mode="normal" in2="BackgroundImageFix" result="effect1_dropShadow_2008_22"/>
<feBlend mode="normal" in="SourceGraphic" in2="effect1_dropShadow_2008_22" result="shape"/>
</filter>
<filter id="filter2_d_2008_22" x="211.394" y="357.532" width="159.183" height="159.182" filterUnits="userSpaceOnUse" color-interpolation-filters="sRGB">
<feFlood flood-opacity="0" result="BackgroundImageFix"/>
<feColorMatrix in="SourceAlpha" type="matrix" values="0 0 0 0 0 0 0 0 0 0 0 0 0 0 0 0 0 0 127 0" result="hardAlpha"/>
<feOffset dy="18"/>
<feGaussianBlur stdDeviation="10"/>
<feComposite in2="hardAlpha" operator="out"/>
<feColorMatrix type="matrix" values="0 0 0 0 0.787386 0 0 0 0 0.787386 0 0 0 0 0.787386 0 0 0 0.15 0"/>
<feBlend mode="normal" in2="BackgroundImageFix" result="effect1_dropShadow_2008_22"/>
<feBlend mode="normal" in="SourceGraphic" in2="effect1_dropShadow_2008_22" result="shape"/>
</filter>
<filter id="filter3_d_2008_22" x="1291.41" y="240" width="159" height="159" filterUnits="userSpaceOnUse" color-interpolation-filters="sRGB">
<feFlood flood-opacity="0" result="BackgroundImageFix"/>
<feColorMatrix in="SourceAlpha" type="matrix" values="0 0 0 0 0 0 0 0 0 0 0 0 0 0 0 0 0 0 127 0" result="hardAlpha"/>
<feOffset dy="18"/>
<feGaussianBlur stdDeviation="10"/>
<feComposite in2="hardAlpha" operator="out"/>
<feColorMatrix type="matrix" values="0 0 0 0 0.787386 0 0 0 0 0.787386 0 0 0 0 0.787386 0 0 0 0.15 0"/>
<feBlend mode="normal" in2="BackgroundImageFix" result="effect1_dropShadow_2008_22"/>
<feBlend mode="normal" in="SourceGraphic" in2="effect1_dropShadow_2008_22" result="shape"/>
</filter>
<linearGradient id="paint0_linear_2008_22" x1="951.019" y1="30.0568" x2="951.019" y2="962.338" gradientUnits="userSpaceOnUse">
<stop stop-color="#F0F0F0" stop-opacity="0"/>
<stop offset="0.484375" stop-color="#F0F0F0"/>
<stop offset="1" stop-color="#F0F0F0" stop-opacity="0"/>
</linearGradient>
<linearGradient id="paint1_linear_2008_22" x1="1489.09" y1="149.5" x2="1760.09" y2="742.5" gradientUnits="userSpaceOnUse">
<stop stop-color="#F7F7F7" stop-opacity="0"/>
<stop offset="0.413853" stop-color="#CBCBCB" stop-opacity="0.8"/>
<stop offset="1" stop-color="#F6E54F" stop-opacity="0"/>
</linearGradient>
<linearGradient id="paint2_linear_2008_22" x1="1611.35" y1="122.153" x2="1611.35" y2="241.335" gradientUnits="userSpaceOnUse">
<stop stop-color="white"/>
<stop offset="1" stop-color="white" stop-opacity="0"/>
</linearGradient>
<linearGradient id="paint3_linear_2008_22" x1="1371.5" y1="721.019" x2="1371.5" y2="840.201" gradientUnits="userSpaceOnUse">
<stop stop-color="white"/>
<stop offset="1" stop-color="white" stop-opacity="0"/>
</linearGradient>
<linearGradient id="paint4_linear_2008_22" x1="532.912" y1="149.5" x2="261.912" y2="742.5" gradientUnits="userSpaceOnUse">
<stop stop-color="#F7F7F7" stop-opacity="0"/>
<stop offset="0.413853" stop-color="#CBCBCB" stop-opacity="0.8"/>
<stop offset="1" stop-color="#F6E54F" stop-opacity="0"/>
</linearGradient>
<linearGradient id="paint5_linear_2008_22" x1="410.415" y1="602" x2="410.415" y2="721" gradientUnits="userSpaceOnUse">
<stop stop-color="white"/>
<stop offset="1" stop-color="white" stop-opacity="0"/>
</linearGradient>
<linearGradient id="paint6_linear_2008_22" x1="530.913" y1="122" x2="530.913" y2="241" gradientUnits="userSpaceOnUse">
<stop stop-color="white"/>
<stop offset="1" stop-color="white" stop-opacity="0"/>
</linearGradient>
<linearGradient id="paint7_linear_2008_22" x1="290.985" y1="359.532" x2="290.985" y2="478.715" gradientUnits="userSpaceOnUse">
<stop stop-color="white"/>
<stop offset="1" stop-color="white" stop-opacity="0"/>
</linearGradient>
<linearGradient id="paint8_linear_2008_22" x1="1370.91" y1="242" x2="1370.91" y2="361" gradientUnits="userSpaceOnUse">
<stop stop-color="white"/>
<stop offset="1" stop-color="white" stop-opacity="0"/>
</linearGradient>
<linearGradient id="paint9_linear_2008_22" x1="1491.91" y1="480" x2="1491.91" y2="599" gradientUnits="userSpaceOnUse">
<stop stop-color="white"/>
<stop offset="1" stop-color="white" stop-opacity="0"/>
</linearGradient>
</defs>
</svg>
